<svg xmlns="http://www.w3.org/2000/svg" width="21.604" height="21.604" viewBox="0 0 21.604 21.604">
  <g id="globe-icon" transform="translate(0 25.594)" opacity="0.898">
    <path id="Path_22" data-name="Path 22" d="M10.8-25.594A10.8,10.8,0,0,0,0-14.792,10.8,10.8,0,0,0,10.8-3.99a10.8,10.8,0,0,0,10.8-10.8A10.8,10.8,0,0,0,10.8-25.594Zm7.81,6.969H15.685a14.518,14.518,0,0,0-1.359-4.125A8.734,8.734,0,0,1,18.612-18.625ZM10.8-23.5c.81,0,2.117,1.795,2.753,4.878H8.049C8.685-21.708,9.992-23.5,10.8-23.5ZM2.091-14.792a8.82,8.82,0,0,1,.174-1.742H5.649c-.044.571-.074,1.145-.074,1.742s.031,1.172.074,1.742H2.265A8.821,8.821,0,0,1,2.091-14.792Zm.9,3.833H5.919A14.515,14.515,0,0,0,7.278-6.834,8.732,8.732,0,0,1,2.992-10.959Zm2.927-7.666H2.992A8.733,8.733,0,0,1,7.278-22.75,14.518,14.518,0,0,0,5.919-18.625ZM10.8-6.08c-.81,0-2.117-1.795-2.753-4.878h5.51C12.919-7.875,11.612-6.08,10.8-6.08Zm3.053-6.969H7.749c-.048-.558-.083-1.132-.083-1.742s.035-1.185.083-1.742H13.86c.048.558.083,1.132.083,1.742S13.9-13.607,13.855-13.049Zm.47,6.215a14.654,14.654,0,0,0,1.359-4.125h2.927A8.733,8.733,0,0,1,14.326-6.834Zm1.629-6.215c.043-.571.074-1.145.074-1.742s-.031-1.172-.074-1.742h3.384a8.817,8.817,0,0,1,.174,1.742,8.819,8.819,0,0,1-.174,1.742Z" transform="translate(0 0)" fill="#222331"/>
  </g>
</svg>
